<svg id="Capa_1" data-name="Capa 1" xmlns="http://www.w3.org/2000/svg" xmlns:xlink="http://www.w3.org/1999/xlink" viewBox="0 0 520 530.92"><defs><style>.cls-1,.cls-8{fill:none;}.cls-2{clip-path:url(#clip-path);}.cls-3{fill:#fad7e5;}.cls-4{isolation:isolate;font-size:283.22px;fill:#399;letter-spacing:-0.06em;}.cls-4,.cls-5,.cls-6{font-family:ArialRoundedMTBold, Arial Rounded MT Bold;}.cls-5{font-size:32.17px;}.cls-5,.cls-7{fill:#ffa4c2;}.cls-6{font-size:51.88px;}.cls-8{stroke:#ffa4c2;stroke-miterlimit:10;stroke-width:3px;}</style><clipPath id="clip-path" transform="translate(0 10.92)"><rect class="cls-1" width="520" height="520"/></clipPath></defs><title>logo en responsive</title><g class="cls-2"><rect class="cls-3" y="10.92" width="520" height="520"/><text class="cls-4" transform="translate(55.32 363.9)">NG</text><text class="cls-5" transform="translate(42.36 203.03) rotate(-69.47)">N</text><text class="cls-5" transform="translate(51.76 178.61) rotate(-63.48)">a</text><text class="cls-5" transform="translate(60.93 160.63) rotate(-59.33)">t</text><text class="cls-5" transform="matrix(0.57, -0.82, 0.82, 0.57, 67.63, 149.18)">h</text><text class="cls-5" transform="translate(79.88 131.86) rotate(-49.65)">a</text><text class="cls-5" transform="translate(93.67 116.01) rotate(-45.66)">l</text><text class="cls-5" transform="matrix(0.74, -0.67, 0.67, 0.74, 101.06, 108.34)">y</text><text class="cls-5" transform="translate(115.6 95.58) rotate(-38.19)"> </text><text class="cls-5" transform="translate(123.2 89.24) rotate(-33.49)">G</text><text class="cls-5" transform="translate(146 74.46) rotate(-27.37)">u</text><text class="cls-5" transform="translate(165.02 64.87) rotate(-22.97)">t</text><text class="cls-5" transform="translate(177.36 59.73) rotate(-19.9)">i</text><text class="cls-5" transform="translate(187.31 56.01) rotate(-15.86)">e</text><text class="cls-5" transform="translate(207.49 50.46) rotate(-11.16)">r</text><text class="cls-5" transform="translate(222.81 47.49) rotate(-7.2)">r</text><text class="cls-5" transform="translate(237.82 45.54) rotate(-2.75)">e</text><text class="cls-5" transform="translate(258.32 44.66) rotate(2.06)">z</text><text class="cls-6" transform="translate(276.95 45.47) rotate(6.27)"> </text><text class="cls-5" transform="matrix(-0.34, 0.94, -0.94, -0.34, 475.11, 336.58)">N</text><text class="cls-5" transform="translate(465.96 361.08) rotate(115.96)">a</text><text class="cls-5" transform="translate(456.97 379.16) rotate(120.11)">t</text><text class="cls-5" transform="matrix(-0.57, 0.82, -0.82, -0.57, 450.38, 390.69)">h</text><text class="cls-5" transform="translate(438.3 408.11) rotate(129.79)">a</text><text class="cls-5" transform="matrix(-0.69, 0.72, -0.72, -0.69, 424.66, 424.1)">l</text><text class="cls-5" transform="matrix(-0.74, 0.67, -0.67, -0.74, 417.36, 431.84)">y</text><text class="cls-5" transform="translate(402.94 444.74) rotate(141.25)"> </text><text class="cls-5" transform="translate(395.39 451.15) rotate(145.95)">G</text><text class="cls-5" transform="translate(372.73 466.17) rotate(152.07)">u</text><text class="cls-5" transform="matrix(-0.92, 0.4, -0.4, -0.92, 353.83, 475.93)">t</text><text class="cls-5" transform="matrix(-0.94, 0.35, -0.35, -0.94, 341.52, 481.2)">i</text><text class="cls-5" transform="translate(331.62 485.02) rotate(163.57)">e</text><text class="cls-5" transform="matrix(-0.98, 0.2, -0.2, -0.98, 311.47, 490.77)">r</text><text class="cls-5" transform="translate(296.21 493.88) rotate(172.24)">r</text><text class="cls-5" transform="translate(281.21 495.99) rotate(176.69)">e</text><text class="cls-5" transform="translate(260.73 497.06) rotate(-178.49)">z</text><path class="cls-7" d="M461.17,125.2h.39a7.61,7.61,0,0,1,5.63,2.24,7.73,7.73,0,0,1,.84,10.06,8.19,8.19,0,0,1-2.28,2.11,10.39,10.39,0,0,1-5.84,1.61,24.59,24.59,0,0,1-4.19-.42l-4.49-.82a33.81,33.81,0,0,0-6.28-.58c-.7,0-1.41.06-2.11.11h-.12a2,2,0,0,1,.08-.26,32,32,0,0,0,1.47-7.63c.13-1.64.2-3.28.33-4.92a23.54,23.54,0,0,1,.61-4,10.7,10.7,0,0,1,2.05-4.25,9.48,9.48,0,0,1,2.65-2.36,7.51,7.51,0,0,1,7.66-.13,7.63,7.63,0,0,1,3.81,8.51C461.32,124.71,461.25,125,461.17,125.2Z" transform="translate(0 10.92)"/><path class="cls-8" d="M503.32,249.57l.36.19a7.61,7.61,0,0,1,3.76,4.74,7.74,7.74,0,0,1-4.28,9.15,8.12,8.12,0,0,1-3,.69,10.41,10.41,0,0,1-5.86-1.51,24.21,24.21,0,0,1-3.42-2.45c-1.17-1-2.32-2-3.49-2.94a33.12,33.12,0,0,0-5.16-3.64c-.62-.34-1.25-.64-1.89-1l-.11-.06.2-.18a31.57,31.57,0,0,0,5.07-5.88c.93-1.36,1.81-2.75,2.74-4.11a25.69,25.69,0,0,1,2.52-3.18,10.89,10.89,0,0,1,3.9-2.66,9.45,9.45,0,0,1,3.47-.72,7.5,7.5,0,0,1,6.71,3.69,7.65,7.65,0,0,1-.93,9.29A7.11,7.11,0,0,1,503.32,249.57Z" transform="translate(0 10.92)"/><path class="cls-8" d="M373.71,46.41c.13,0,.25-.09.38-.12a7.57,7.57,0,0,1,6,.69,7.73,7.73,0,0,1,3.45,9.49,8.45,8.45,0,0,1-1.65,2.64,10.54,10.54,0,0,1-5.21,3.08,24.39,24.39,0,0,1-4.16.68c-1.51.14-3,.25-4.54.39a33.46,33.46,0,0,0-6.22,1.08c-.68.19-1.34.43-2,.66l-.12,0a2.62,2.62,0,0,0,0-.27,32,32,0,0,0-.57-7.75c-.3-1.61-.67-3.22-1-4.83a23.94,23.94,0,0,1-.47-4,11,11,0,0,1,.87-4.64,9.64,9.64,0,0,1,1.95-3,7.5,7.5,0,0,1,7.36-2.14,7.65,7.65,0,0,1,5.9,7.23A6.65,6.65,0,0,1,373.71,46.41Z" transform="translate(0 10.92)"/><path class="cls-7" d="M57.71,395.51l-.4,0a7.61,7.61,0,0,1-5.62-2.24,7.75,7.75,0,0,1-.85-10.07,8.37,8.37,0,0,1,2.29-2.11A10.46,10.46,0,0,1,59,379.5a23.54,23.54,0,0,1,4.19.43c1.5.26,3,.55,4.49.81a33.16,33.16,0,0,0,6.29.58c.7,0,1.4-.05,2.11-.11h.12l-.08.26a31.42,31.42,0,0,0-1.47,7.62c-.13,1.64-.2,3.28-.33,4.92a23.66,23.66,0,0,1-.61,4,10.83,10.83,0,0,1-2,4.25A9.44,9.44,0,0,1,69,404.63a7.51,7.51,0,0,1-7.66.14,7.63,7.63,0,0,1-3.81-8.52A6.84,6.84,0,0,1,57.71,395.51Z" transform="translate(0 10.92)"/><path class="cls-8" d="M156.83,478l-.37.16a7.58,7.58,0,0,1-6.05-.08A7.73,7.73,0,0,1,146,469a8.16,8.16,0,0,1,1.37-2.79,10.49,10.49,0,0,1,4.87-3.59,24,24,0,0,1,4.07-1.11c1.49-.29,3-.55,4.48-.84a33.11,33.11,0,0,0,6.08-1.71c.65-.26,1.29-.56,1.93-.86l.11-.05c0,.1,0,.19,0,.27a31.59,31.59,0,0,0,1.36,7.65c.46,1.58,1,3.14,1.45,4.71a24.45,24.45,0,0,1,.87,4,11,11,0,0,1-.39,4.7,9.58,9.58,0,0,1-1.64,3.15,7.51,7.51,0,0,1-7.1,2.87,7.65,7.65,0,0,1-6.61-6.59C156.86,478.5,156.84,478.25,156.83,478Z" transform="translate(0 10.92)"/><path class="cls-8" d="M17.32,282.88l-.38-.11a7.6,7.6,0,0,1-4.61-3.93,7.74,7.74,0,0,1,2.43-9.8,8.24,8.24,0,0,1,2.84-1.26,10.46,10.46,0,0,1,6,.34,24.61,24.61,0,0,1,3.84,1.75c1.33.73,2.65,1.49,4,2.22a34.63,34.63,0,0,0,5.77,2.57c.67.21,1.35.39,2,.57l.12,0a1.77,1.77,0,0,1-.16.22,32,32,0,0,0-3.84,6.75c-.65,1.51-1.24,3-1.89,4.55a23.29,23.29,0,0,1-1.87,3.61,10.94,10.94,0,0,1-3.3,3.37,9.63,9.63,0,0,1-3.27,1.38,7.55,7.55,0,0,1-7.3-2.33,7.66,7.66,0,0,1-.88-9.29C17,283.3,17.16,283.09,17.32,282.88Z" transform="translate(0 10.92)"/></g></svg>